<?xml version="1.0" standalone="no"?><!DOCTYPE svg PUBLIC "-//W3C//DTD SVG 1.1//EN" "http://www.w3.org/Graphics/SVG/1.1/DTD/svg11.dtd"><svg t="1684651799916" class="icon" viewBox="0 0 1241 1024" version="1.1" xmlns="http://www.w3.org/2000/svg" p-id="2629" xmlns:xlink="http://www.w3.org/1999/xlink" width="58.171875" height="48"><path d="M186.181818 93.090909h868.848485c68.266667 0 124.121212 55.854545 124.121212 124.121212v682.666667c0 68.266667-55.854545 124.121212-124.121212 124.121212H186.181818c-68.266667 0-124.121212-55.854545-124.121212-124.121212V217.212121c0-68.266667 55.854545-124.121212 124.121212-124.121212z" fill="#2F77F1" p-id="2630"></path><path d="M1041.066667 285.478788c-26.375758 0-46.545455-20.169697-46.545455-46.545455s20.169697-46.545455 46.545455-46.545454 46.545455 20.169697 46.545454 46.545454-20.169697 46.545455-46.545454 46.545455zM620.606061 791.272727c-128.775758 0-232.727273-103.951515-232.727273-232.727272s103.951515-232.727273 232.727273-232.727273 232.727273 103.951515 232.727272 232.727273-103.951515 232.727273-232.727272 232.727272z m0-403.393939c-94.642424 0-170.666667 76.024242-170.666667 170.666667s76.024242 170.666667 170.666667 170.666666 170.666667-76.024242 170.666666-170.666666-76.024242-170.666667-170.666666-170.666667zM217.212121 62.060606c0-17.066667 13.963636-31.030303 31.030303-31.030303h186.181818c17.066667 0 31.030303 13.963636 31.030303 31.030303v31.030303H217.212121V62.060606z" fill="#AFFCFE" p-id="2631"></path></svg>